PathFileType	4	(X/Y/Z)	s01c0202.trc
DataRate	CameraRate	NumFrames	NumMarkers	Units	OrigDataRate	OrigDataStartFrame	OrigNumFrames
200	200	4	48	mm	200	1500	2000
Frame#	Time	racr			lacr			c7			jug			rlel			rdr			llel			ldr			s2			lic			ric			lasi			rasi			rpsi			lpsi			rgt			lgt			rth1			rth2			rth3			rth4			rlfc			rsh1			rsh2			rsh3			rsh4			rlmal			rmmal			rcal			rtoe			rmt5			lth1			lth2			lth4			lth3			llfc			lsh1			lsh2			lsh3			lsh4			llmal			lmmal			lcal			ltoe			lmt5			SBIKE			LBIKE			RBIKE			
		X1	Y1	Z1	X2	Y2	Z2	X3	Y3	Z3	X4	Y4	Z4	X5	Y5	Z5	X6	Y6	Z6	X7	Y7	Z7	X8	Y8	Z8	X9	Y9	Z9	X10	Y10	Z10	X11	Y11	Z11	X12	Y12	Z12	X13	Y13	Z13	X14	Y14	Z14	X15	Y15	Z15	X16	Y16	Z16	X17	Y17	Z17	X18	Y18	Z18	X19	Y19	Z19	X20	Y20	Z20	X21	Y21	Z21	X22	Y22	Z22	X23	Y23	Z23	X24	Y24	Z24	X25	Y25	Z25	X26	Y26	Z26	X27	Y27	Z27	X28	Y28	Z28	X29	Y29	Z29	X30	Y30	Z30	X31	Y31	Z31	X32	Y32	Z32	X33	Y33	Z33	X34	Y34	Z34	X35	Y35	Z35	X36	Y36	Z36	X37	Y37	Z37	X38	Y38	Z38	X39	Y39	Z39	X40	Y40	Z40	X41	Y41	Z41	X42	Y42	Z42	X43	Y43	Z43	X44	Y44	Z44	X45	Y45	Z45	X46	Y46	Z46	X47	Y47	Z47	X48	Y48	Z48	
1500	7.5000	497.790985	1295.198975	-77.239845	507.681763	1287.134033	-437.656128	478.291809	1386.678955	-259.490723	476.762634	1224.600098	-258.788055	486.701324	1022.895630	26.346981	675.768433	874.481323	-51.438457	497.305969	1018.036377	-542.351501	667.178711	866.176636	-432.753204	-29.558990	1133.842163	-257.630829	136.822998	1152.644165	-425.667725	123.214027	1145.113892	-99.862869	145.156448	1098.659058	-404.834961	154.194901	1101.710815	-129.671509	-2.365055	1172.687744	-206.300110	-3.683002	1176.157227	-311.824463	80.946472	1024.958008	-71.504913	90.193184	1007.534363	-452.587524	191.303070	941.648315	-52.908329	264.087799	902.550049	-57.216831	340.706879	854.621887	-68.846527	292.822235	949.810059	-69.501564	403.185120	770.337952	-92.598251	309.003052	704.075134	-62.936882	243.835770	649.453003	-68.679749	170.855942	599.746155	-80.635162	274.413025	614.773560	-107.046295	64.679199	538.383057	-101.364342	107.717819	521.226807	-179.454376	14.191955	546.280151	-157.100479	190.797928	340.477600	-134.662704	94.619659	395.339081	-69.686028	171.799515	902.909119	-458.349274	251.221848	860.408508	-458.590759	277.538910	908.512878	-454.359253	321.834412	815.437988	-437.509521	404.820221	731.860840	-418.125885	342.957458	636.376038	-446.508881	324.233398	552.294128	-440.091156	303.132294	469.802917	-425.542419	378.190643	542.809937	-411.232117	270.602448	349.234741	-408.994934	0.000000	0.000000	-0.000000	219.806366	313.288849	-365.553497	497.643341	289.238403	-371.397797	392.450500	269.211914	-436.522186	-224.694824	892.914734	-252.884552	-12.662075	84.552086	-456.123840	-21.659071	80.883003	-56.069328	
1501	7.5050	497.591370	1295.447021	-77.140587	507.582367	1287.619019	-437.206238	478.073303	1386.918701	-259.187012	476.477966	1224.940674	-258.626526	486.681366	1022.968201	26.110153	675.825989	874.531250	-51.495426	497.737854	1018.550476	-541.831970	667.297363	866.096924	-432.424927	-29.623451	1134.130127	-257.849915	136.871490	1153.170044	-425.733765	122.873383	1145.587402	-99.773705	145.039383	1098.872559	-404.939362	154.127731	1102.228516	-129.887039	-2.471336	1173.007568	-206.548355	-3.763552	1176.335571	-312.101166	81.134415	1026.179810	-71.445473	89.500664	1007.496460	-452.604919	192.516922	944.845459	-52.866657	265.887421	906.788208	-57.218861	343.033325	859.558044	-68.808334	293.528473	954.156189	-70.270309	406.143768	775.125427	-92.843506	311.291687	709.560547	-63.406731	245.680527	655.488647	-69.066101	172.470551	606.264038	-80.959442	275.842621	620.275513	-107.857925	66.001717	545.312744	-101.363365	108.757545	527.960815	-179.725769	14.880857	552.103882	-157.295380	193.691315	348.456635	-134.608322	96.940697	402.310791	-69.601677	168.941620	900.998108	-458.630493	247.071793	856.580566	-458.431702	274.610352	904.227844	-455.115326	316.734497	810.045593	-438.222900	399.523529	725.506592	-418.466064	337.943634	629.337219	-447.029327	320.123230	545.555115	-440.344391	299.414368	463.010468	-425.754456	373.986115	536.416931	-411.317810	267.457672	342.094727	-408.917847	0.000000	0.000000	-0.000000	216.975433	306.154938	-365.286804	494.685120	282.772827	-371.502747	389.541748	262.441406	-436.549072	-224.684021	892.944336	-252.925705	-12.663361	84.559204	-456.128723	-21.653185	80.892738	-56.073017	
1502	7.5100	497.392090	1295.672852	-77.021523	507.493622	1288.122314	-436.748169	477.871399	1387.203247	-258.912537	476.195129	1225.221313	-258.484650	486.673462	1023.090576	25.878689	675.883240	874.555176	-51.527222	498.173065	1018.985229	-541.287903	667.445740	866.044983	-432.115417	-29.676332	1134.490967	-258.198517	136.910461	1153.602539	-425.762970	122.616722	1146.149170	-99.746086	144.860123	1099.070435	-405.106750	154.125198	1102.755127	-130.156097	-2.537549	1173.303345	-206.792114	-3.818710	1176.554443	-312.363770	81.382591	1027.562378	-71.308998	88.801170	1007.517395	-452.655060	193.733368	947.956482	-53.048233	267.593292	910.830200	-57.256996	345.301117	864.516174	-68.714523	294.530334	958.475342	-70.782738	408.932220	779.998108	-93.633865	313.553986	714.964844	-63.712490	247.946701	661.290527	-69.267471	174.031433	612.755066	-81.315010	277.447479	625.720398	-108.297379	66.950134	551.703735	-102.103165	109.661842	534.555542	-180.021942	15.511558	557.849731	-157.562668	196.959976	356.489655	-134.671387	99.533104	409.162262	-69.664742	166.025513	899.286987	-458.914978	243.009216	853.195801	-458.785248	271.579285	900.257324	-455.814301	311.620270	805.301270	-438.456238	394.050964	719.451355	-418.798096	333.534241	623.310486	-447.613495	315.728119	539.016785	-440.644043	295.435638	456.362335	-425.920685	369.559357	530.229370	-411.391754	264.108765	335.131226	-408.795532	0.000000	0.000000	-0.000000	213.893066	299.275055	-365.072754	491.470001	276.294769	-371.654816	386.274994	255.842453	-436.707520	-224.694153	892.935730	-252.940002	-12.640300	84.566963	-456.131470	-21.668104	80.896896	-56.082115	
1503	7.5150	497.211975	1295.944336	-76.887497	507.440826	1288.559448	-436.369659	477.725647	1387.488037	-258.627228	475.892212	1225.522217	-258.283081	486.644745	1023.207336	25.688873	675.950378	874.569092	-51.556030	498.557831	1019.400818	-540.805420	667.582703	866.005432	-431.869171	-29.691847	1134.861450	-258.322174	136.936356	1153.915039	-425.807495	122.407135	1146.689941	-99.737900	144.676025	1099.286865	-405.278137	154.152344	1103.280273	-130.441177	-2.587464	1173.602295	-206.996750	-3.824276	1176.759155	-312.616516	81.709229	1028.912476	-71.110275	88.000687	1007.535034	-452.626312	194.873856	951.024048	-53.279247	269.216431	914.823486	-57.374149	347.216614	869.538818	-68.657639	295.425537	962.659241	-71.517250	411.658661	784.824646	-93.897781	315.598083	720.514221	-64.124329	249.707520	667.202759	-69.571022	175.507156	619.119263	-81.640823	279.118530	631.421875	-108.441933	67.824318	558.010132	-102.035995	110.515633	540.998413	-180.334290	16.267550	564.017578	-157.946915	200.369843	364.510956	-134.675049	102.347565	415.903900	-69.625404	163.082764	897.751770	-459.201752	238.891235	850.023987	-459.130127	268.547424	896.390381	-456.412262	306.494690	800.859985	-438.936523	388.411713	713.523926	-419.097870	328.470001	617.024719	-447.967133	310.820557	532.318726	-440.661652	291.240845	449.893341	-426.045685	365.004944	524.109802	-411.493530	260.556702	328.356079	-408.623932	0.000000	0.000000	-0.000000	210.593414	292.597687	-364.832550	487.959076	269.968140	-371.756134	382.829865	249.341660	-436.750580	-224.680527	892.945862	-252.968948	-12.650132	84.572838	-456.145935	-21.660625	80.904579	-56.082790	
